<svg width="50" height="17" viewBox="0 0 50 17" fill="none" xmlns="http://www.w3.org/2000/svg">
<path d="M46.312 16.1153C43.648 16.1153 42.316 15.0173 42.316 12.8213C42.316 12.1733 42.73 11.2193 43.558 9.95933C44.386 8.69933 44.8 7.87133 44.8 7.47533C44.8 6.64733 44.332 6.23333 43.396 6.23333C42.316 6.23333 41.182 7.07933 39.994 8.77133C38.806 10.3193 38.212 11.6873 38.212 12.8753L38.212 15.3593C38.032 15.6833 37.726 15.8453 37.294 15.8453L33.244 15.7373C32.956 15.4493 32.812 15.2333 32.812 15.0893L32.812 11.7413L18.07 10.6073C13.93 10.2473 10.366 9.83333 7.378 9.36533C4.426 8.93333 2.014 8.44733 0.141999 7.90733C0.141999 7.58333 0.159999 7.36733 0.196 7.25933L0.25 6.93533L15.478 4.82933L29.032 3.85733C29.788 3.78533 30.994 3.62333 32.65 3.37133C32.686 3.11933 32.722 2.75933 32.758 2.29133C32.83 1.85933 32.902 1.33733 32.974 0.725327C34.882 2.52533 37.006 3.73133 39.346 4.34333C39.67 4.41533 40.066 4.48733 40.534 4.55933C41.038 4.63133 41.632 4.73933 42.316 4.88333C47.176 5.85533 49.606 7.54733 49.606 9.95933C49.606 10.4993 49.3 11.2913 48.688 12.3353C48.112 13.3433 47.824 13.9553 47.824 14.1713C47.824 14.6753 48.112 14.9273 48.688 14.9273C48.976 14.9273 49.39 14.8553 49.93 14.7113C49.822 14.9273 49.624 15.1253 49.336 15.3053C49.048 15.4853 48.724 15.6293 48.364 15.7373C48.04 15.8453 47.698 15.9353 47.338 16.0073C46.978 16.0793 46.636 16.1153 46.312 16.1153Z" fill="white"/>
</svg>
