<?xml version="1.0" encoding="UTF-8" standalone="no"?>
<!-- Created with Inkscape (http://www.inkscape.org/) -->

<svg
   width="149.94585mm"
   height="42.475498mm"
   viewBox="0 0 149.94585 42.475498"
   version="1.1"
   id="svg1"
   sodipodi:docname="Perpanic Logo.svg"
   inkscape:export-filename="Perpanic Logo Torn.png"
   inkscape:export-xdpi="200"
   inkscape:export-ydpi="200"
   inkscape:version="1.4 (86a8ad7, 2024-10-11)"
   xmlns:inkscape="http://www.inkscape.org/namespaces/inkscape"
   xmlns:sodipodi="http://sodipodi.sourceforge.net/DTD/sodipodi-0.dtd"
   xmlns="http://www.w3.org/2000/svg"
   xmlns:svg="http://www.w3.org/2000/svg">
  <sodipodi:namedview
     id="namedview1"
     pagecolor="#ffffff"
     bordercolor="#000000"
     borderopacity="0.25"
     inkscape:showpageshadow="2"
     inkscape:pageopacity="0.0"
     inkscape:pagecheckerboard="0"
     inkscape:deskcolor="#d1d1d1"
     inkscape:document-units="mm"
     showguides="false"
     inkscape:zoom="2.054307"
     inkscape:cx="228.30083"
     inkscape:cy="94.192348"
     inkscape:window-width="2560"
     inkscape:window-height="1362"
     inkscape:window-x="-8"
     inkscape:window-y="-8"
     inkscape:window-maximized="1"
     inkscape:current-layer="layer1">
    <inkscape:page
       x="0"
       y="4.7523626e-15"
       width="149.94585"
       height="42.475494"
       id="page2"
       margin="0"
       bleed="0" />
  </sodipodi:namedview>
  <defs
     id="defs1">
    <filter
       inkscape:label="Torn Edges"
       inkscape:menu="Distort"
       inkscape:menu-tooltip="Displace the outside of shapes and pictures without altering their content"
       height="1.0382924"
       y="-0.01652065"
       width="1.0115776"
       x="-0.0055700662"
       style="color-interpolation-filters:sRGB;"
       id="filter1">
      <feTurbulence
         baseFrequency="0.45896946564885499"
         numOctaves="6"
         type="fractalNoise"
         result="result91"
         id="feTurbulence1"
         seed="493" />
      <feDisplacementMap
         scale="1.4184397163120568"
         result="result5"
         xChannelSelector="R"
         in="SourceGraphic"
         in2="result91"
         id="feDisplacementMap1" />
      <feComposite
         in="SourceGraphic"
         operator="atop"
         in2="result5"
         id="feComposite1"
         scale="18.399999999999999" />
    </filter>
    <filter
       inkscape:label="Torn Edges"
       inkscape:menu="Distort"
       inkscape:menu-tooltip="Displace the outside of shapes and pictures without altering their content"
       height="1.0382924"
       y="-0.01652065"
       width="1.0115776"
       x="-0.0055700662"
       style="color-interpolation-filters:sRGB"
       id="filter1-4">
      <feTurbulence
         baseFrequency="0.45896946564885499"
         numOctaves="6"
         type="fractalNoise"
         result="result91"
         id="feTurbulence1-2"
         seed="493" />
      <feDisplacementMap
         scale="1.4184397"
         result="result5"
         xChannelSelector="R"
         in="SourceGraphic"
         in2="result91"
         id="feDisplacementMap1-3"
         yChannelSelector="A" />
      <feComposite
         in="SourceGraphic"
         operator="atop"
         in2="result5"
         id="feComposite1-2"
         scale="18.399999999999999" />
    </filter>
    <filter
       inkscape:label="Warm Inside"
       inkscape:menu="Morphology"
       inkscape:menu-tooltip="Blurred colorized contour, filled inside"
       style="color-interpolation-filters:sRGB;"
       id="filter69"
       x="-0.054143179"
       y="-0.19252063"
       width="1.1222169"
       height="1.4391809">
      <feColorMatrix
         values="1 0 0 0 0 0 1 0 0 0 0 0 1 0 0 0 0 0 1 0 "
         result="fbSourceGraphic"
         id="feColorMatrix68" />
      <feGaussianBlur
         stdDeviation="3"
         result="result1"
         id="feGaussianBlur68" />
      <feOffset
         dx="2"
         dy="2"
         result="result6"
         id="feOffset68" />
      <feComposite
         k2="2"
         operator="in"
         result="result2"
         in="result6"
         in2="result1"
         id="feComposite68" />
      <feColorMatrix
         values="110"
         result="result3"
         type="hueRotate"
         id="feColorMatrix69" />
      <feBlend
         mode="screen"
         in="result2"
         in2="result3"
         result="result4"
         id="feBlend69" />
      <feConvolveMatrix
         order="3 3"
         kernelMatrix="-2 0 2 0 4 0 2 0 2"
         divisor="2"
         bias="0"
         targetX="0"
         in="result4"
         result="result5"
         id="feConvolveMatrix69" />
      <feComposite
         operator="atop"
         in="result2"
         in2="result5"
         id="feComposite69" />
    </filter>
  </defs>
  <g
     inkscape:label="Layer 1"
     inkscape:groupmode="layer"
     id="layer1"
     transform="translate(-29.43752,-71.845767)">
    <g
       id="g51"
       inkscape:export-filename="Perpanic Logo.svg"
       inkscape:export-xdpi="96"
       inkscape:export-ydpi="96"
       style="filter:url(#filter1)"
       inkscape:label="Torn Edges">
      <path
         style="font-size:50.8px;font-family:Canterbury;-inkscape-font-specification:Canterbury;letter-spacing:-2.4421px;stroke:#000000;stroke-width:1.2"
         d="m 32.647641,102.22888 0.279886,1.75583 c 1.292213,-0.0688 2.294817,-0.12574 3.007813,-0.17081 l 0.487801,3.06017 c 0.319869,2.00667 0.228723,3.4787 -0.273442,4.4161 -0.293252,0.52687 -0.672781,1.05034 -1.138587,1.57041 l 0.296628,0.57001 c 0.184672,-0.13232 0.343898,-0.20914 0.477676,-0.23046 1.470596,-0.88601 2.543253,-1.79433 3.217971,-2.72494 1.9509,1.26655 3.888721,2.02078 5.813463,2.26268 l 0.307558,-0.97497 c -1.939278,-0.54823 -3.116833,-2.12667 -3.532664,-4.73534 l -0.383844,-2.408 c 1.412413,0.25497 2.72037,0.71522 3.923871,1.38073 1.226321,-1.77301 3.280756,-3.72947 6.163305,-5.86938 L 49.343868,87.890249 C 48.906712,85.147806 47.726741,83.123919 45.803955,81.81859 45.199539,81.469111 44.672674,81.175859 44.223361,80.938833 43.768715,80.668362 43.391622,80.454119 43.09208,80.296102 l -4.763011,6.263467 C 38.00241,84.725456 37.151782,83.36925 35.777185,82.490951 35.472311,82.299489 35.208879,82.152863 34.986888,82.051072 l -0.52347,-0.379529 -4.200248,4.63052 0.613621,0.622365 0.08434,-0.116327 0.05017,-0.008 c 0.230237,-0.276761 0.495856,-0.439131 0.796856,-0.487112 0.668888,-0.106623 1.182905,0.428737 1.542049,1.606081 0.04944,0.095 0.09282,0.259558 0.130134,0.493669 l 2.063163,12.943001 c -0.781342,0.26173 -1.417515,0.46602 -1.908519,0.61287 -0.496336,0.11341 -0.814653,0.26027 -0.987339,0.26027 z m 7.912522,-1.67282 -1.991192,-12.491492 2.520011,-3.230974 c 1.220951,0.559849 2.005188,1.069282 2.352712,1.528299 0.419742,0.481799 0.733572,1.374865 0.941488,2.679198 l 1.991191,12.491489 c -0.838527,-0.31216 -1.750003,-0.5441 -2.734427,-0.69583 -0.956312,-0.1905 -1.982906,-0.28406 -3.079783,-0.28069 z"
         id="path35"
         sodipodi:nodetypes="cccscccccccscccscccccccccccsccccscccccsccc" />
      <path
         style="font-size:50.8px;font-family:Canterbury;-inkscape-font-specification:Canterbury;letter-spacing:-1.8837px;stroke:#000000;stroke-width:1.2"
         d="m 68.060352,98.17318 -0.581219,-0.652728 -3.314148,2.911538 c -1.176439,-0.486453 -2.72275,-1.08636 -4.638932,-1.79972 l -0.50034,-4.646738 8.326184,-8.560572 -7.010385,-7.215761 c -1.196147,0.912231 -2.557029,1.876263 -4.082645,2.892096 -1.529242,0.98216 -3.25689,2.019746 -5.182945,3.112758 l 0.261856,0.533835 c 1.111176,-0.119647 1.735653,0.460299 1.873428,1.739836 l 1.120327,10.404657 0.05982,0.555589 c 0.124816,1.791867 -0.3075,2.99654 -1.296948,3.61402 l 0.05982,0.55559 c 2.333206,0.15752 5.038347,0.92218 8.115425,2.29397 z m -9.214109,-5.854414 -1.163835,-10.808722 5.864262,6.061829 z"
         id="path36"
         sodipodi:nodetypes="ccccccccccscccccccccc" />
      <path
         style="font-size:50.8px;font-family:Canterbury;-inkscape-font-specification:Canterbury;letter-spacing:-0.896937px;stroke:#000000;stroke-width:1.2"
         d="m 67.651118,81.308232 0.653744,0.670848 1.392392,-1.31073 0.539383,0.474546 c 0.509908,0.544302 0.808088,1.492406 0.894538,2.844311 l 0.65486,10.240684 c 0.129675,2.027858 -0.359515,3.399605 -1.46757,4.115242 l 0.0389,0.60836 c 2.08759,0.273733 4.225971,1.341717 6.415141,3.203937 l 5.819808,-5.309824 -0.76162,-0.765757 -2.215329,1.974204 -2.600834,-1.666225 -0.910969,-14.245702 1.914392,-1.904051 3.227748,3.509569 3.24312,-3.414324 -3.938672,-4.278569 -4.344301,4.502817 c -0.75454,-1.716413 -2.024988,-3.009574 -3.811344,-3.879481 z"
         id="path38"
         sodipodi:nodetypes="ccccssccccccccccccccc" />
      <path
         style="font-size:50.8px;font-family:Canterbury;-inkscape-font-specification:Canterbury;letter-spacing:-2.43417px;stroke:#000000;stroke-width:1.2"
         d="m 86.426991,95.894151 0.02681,1.777802 c 1.288829,0.11604 2.289314,0.202563 3.001455,0.25957 l 0.04673,3.098437 c 0.03064,2.03177 -0.269353,3.4758 -0.899977,4.33207 -0.365342,0.47969 -0.815595,0.94373 -1.350761,1.39212 l 0.212369,0.60647 c 0.201644,-0.10465 0.370192,-0.158 0.505644,-0.16004 1.581849,-0.6674 2.772999,-1.41358 3.573451,-2.23854 1.750495,1.53164 3.561055,2.55432 5.431681,3.06804 l 0.44336,-0.92119 c -1.84136,-0.81899 -2.781956,-2.54914 -2.82179,-5.19044 l -0.03677,-2.438117 c 1.361662,0.453645 2.590681,1.095587 3.687059,1.925817 1.466472,-1.580158 3.778748,-3.223879 6.936828,-4.931164 l -0.18691,-12.393791 c -0.0419,-2.776751 -0.92138,-4.948135 -2.63853,-6.514153 -0.54844,-0.432045 -1.02814,-0.797387 -1.43909,-1.096024 -0.41146,-0.332499 -0.75418,-0.598295 -1.028143,-0.797386 L 94.28342,81.194409 C 94.221466,79.332465 93.572789,77.86888 92.337389,76.803655 92.062911,76.570701 91.823063,76.38803 91.617843,76.255643 l -0.464042,-0.450253 -4.817261,3.984694 0.518667,0.703459 0.100056,-0.103121 0.05079,-7.66e-4 c 0.267327,-0.241125 0.553373,-0.363986 0.858139,-0.368582 0.677256,-0.01021 1.109734,0.592934 1.297433,1.809441 0.03539,0.101078 0.05488,0.270137 0.05845,0.507176 l 0.197637,13.10491 c -0.810665,0.147708 -1.469458,0.259255 -1.976378,0.334641 -0.507432,0.04153 -1.187038,0.116909 -1.014352,0.116909 z m 8.070153,-0.528153 -0.190743,-12.647762 2.954727,-2.838878 c 1.128708,0.728129 1.832344,1.344122 2.110907,1.847979 0.346799,0.536698 0.530157,1.465372 0.550074,2.786021 L 100.11285,97.16112 C 99.327368,96.732649 98.458248,96.373181 97.505493,96.082715 96.58609,95.757876 95.583307,95.51897 94.497144,95.365998 Z"
         id="path39"
         sodipodi:nodetypes="cccscccccccscccccccccccccccsccccscccccsccc" />
      <path
         style="font-size:50.8px;font-family:Canterbury;-inkscape-font-specification:Canterbury;letter-spacing:-0.547687px;stroke:#000000;stroke-width:1.2"
         d="m 126.16325,97.740963 -0.48711,-0.626417 c -0.07,0.06541 -0.13882,0.09696 -0.20651,0.09467 l -0.0525,0.04905 -0.10498,0.09811 c -0.61841,0.250171 -1.02916,0.371824 -1.23224,0.364957 -0.8089,-0.129007 -1.20967,-0.803334 -1.20231,-2.022982 l 0.0137,-0.406168 0.33994,-10.052654 c 0.016,-0.473863 0.0309,-0.913878 0.0446,-1.320046 0.0137,-0.406167 0.0438,-0.794839 0.0903,-1.166015 0.0876,-1.58968 0.73662,-3.245093 1.94695,-4.966238 l -0.64629,-0.428487 c -0.80367,0.718316 -1.57782,1.064884 -2.32246,1.039704 -1.69237,-0.05723 -3.78551,-0.788784 -6.27942,-2.194673 -0.1331,-0.07227 -0.23293,-0.126478 -0.29948,-0.162614 -0.0665,-0.03613 -0.13309,-0.07227 -0.19965,-0.10841 -1.74044,1.364359 -3.82916,2.005312 -6.26616,1.922927 l -0.55848,-0.01888 c -0.0339,-0.0011 -0.0671,-0.0192 -0.0998,-0.0542 l -0.25386,-0.0086 c -0.10154,-0.0035 -0.15174,-0.02211 -0.15059,-0.05592 l 4.10191,7.96638 -0.73827,0.788299 c -2.80965,2.920847 -4.2614,5.76901 -4.35525,8.544491 -0.0744,2.200077 1.15775,4.342675 3.69647,6.427793 l 6.88376,-5.155096 c 0.14357,1.766926 0.72053,3.243535 1.73088,4.429826 0.22892,0.24494 0.42571,0.43797 0.59037,0.57908 0.19736,0.17611 0.36144,0.33414 0.49226,0.47411 z m -10.78921,-10.124013 2.70215,1.260442 -0.20775,6.143289 -3.34033,2.580984 c -2.0333,-2.00026 -3.02019,-3.88042 -2.96067,-5.640481 0.0343,-1.01542 0.2832,-2.362446 0.7466,-4.041077 0.27126,-1.007407 0.45767,-1.509394 0.55922,-1.505961 z m 2.94079,-5.796724 -0.20431,6.041746 -4.75286,-2.24471 -3.52699,-6.930357 z"
         id="path40"
         sodipodi:nodetypes="cccccccccscccscscsccccccsccccccccccscccccccc" />
      <path
         style="font-size:50.8px;font-family:Canterbury;-inkscape-font-specification:Canterbury;letter-spacing:-0.915458px;stroke:#000000;stroke-width:1.2"
         d="m 128.57122,80.142421 0.53536,0.863508 c 0.50222,-0.295425 0.93886,-0.426671 1.30994,-0.393738 0.70841,0.06287 1.02859,0.669286 0.96053,1.819238 l -0.0135,0.151803 -0.0718,0.809618 c -0.0367,0.03074 -0.0596,0.09671 -0.0686,0.197913 l -1.16764,13.156287 -2.13511,1.646493 3.97775,4.025007 4.66605,-3.155857 -1.55876,-1.974332 1.23051,-13.864702 3.74746,-2.57439 1.7938,2.19919 -1.12721,12.700877 c -0.22455,2.530059 0.0325,4.422854 0.77102,5.678394 0.33215,0.47147 0.61969,0.87099 0.86262,1.19855 0.27666,0.33055 0.52558,0.59064 0.74675,0.78027 l 5.69035,-3.778947 -0.52188,-1.01531 -0.43176,0.26768 -0.004,0.0506 c -0.50522,0.32916 -0.90963,0.480267 -1.21323,0.45332 -0.80962,-0.07185 -1.14257,-0.917398 -0.99886,-2.536633 l 0.89369,-10.06962 c 0.1946,-2.192714 0.65579,-3.749773 1.38357,-4.671176 0.37626,-0.408603 0.7128,-0.752733 1.00962,-1.032388 0.29682,-0.279655 0.55541,-0.511703 0.77578,-0.696144 l -0.63656,-0.87249 -2.58034,2.065976 -3.31994,-3.966625 -6.7371,4.655041 c 0.10478,-1.180693 -0.0445,-2.179938 -0.44794,-2.997737 -0.28944,-0.569685 -0.94736,-1.393071 -1.97376,-2.470159 z"
         id="path41"
         sodipodi:nodetypes="ccsccccccccccccscccccccssscscccccccc" />
      <path
         style="font-size:50.8px;font-family:Canterbury;-inkscape-font-specification:Canterbury;letter-spacing:-1.16681px;stroke:#000000;stroke-width:1.2"
         d="m 160.55498,102.45365 -0.49114,-0.93606 -1.67732,1.05928 -1.24365,-1.44549 2.05757,-15.561758 1.91872,-1.334813 -3.72723,-3.977276 -4.61284,2.72083 1.5629,1.743909 -1.70466,12.892594 c -0.23972,1.813021 -0.92118,2.833164 -2.04439,3.060434 l -0.0666,0.50361 c 0.68093,0.53413 1.3631,1.18799 2.04653,1.96158 0.71701,0.77803 1.45205,1.67801 2.20513,2.69994 z m -3.19546,-24.350626 1.19536,0.260535 4.93246,-5.138191 -4.16004,-0.703766 z"
         id="path50"
         sodipodi:nodetypes="cccccccccscccccccccc" />
      <path
         style="font-size:50.8px;font-family:Canterbury;-inkscape-font-specification:Canterbury;letter-spacing:-1.8837px;stroke:#000000;stroke-width:1.2"
         d="m 175.88046,105.91705 -0.39259,-0.73489 -2.4385,1.34481 -3.9839,-2.67211 2.53746,-15.233305 3.77513,2.997833 3.11481,-3.240654 -5.27851,-4.175253 c -3.01748,2.038034 -5.85966,3.22977 -8.52653,3.575208 l -0.10851,0.651424 c 0.85187,0.244899 1.3502,0.551074 1.495,0.918525 0.18376,0.33961 0.20053,0.960401 0.0503,1.862373 l -1.70277,10.222359 c -0.31162,1.87074 -0.98798,3.04558 -2.02908,3.52449 l -0.10851,0.65143 c 2.6948,0.72355 5.05004,2.04286 7.0657,3.95795 z"
         id="path51"
         sodipodi:nodetypes="ccccccccccccscccc" />
    </g>
    <ellipse
       style="display:none;fill:#000000;stroke:#000000;stroke-width:1.63899;stroke-dasharray:none;stroke-opacity:1"
       id="path37"
       cx="-275.3847"
       cy="-51.7953"
       transform="matrix(-0.5698604,-0.82174152,0.98186043,-0.18960512,0,0)"
       rx="154.28537"
       ry="211.42834" />
  </g>
</svg>
